HIERARCHY
ROOT Hips
{
	OFFSET 0.000000 100.481300 0.000000
	CHANNELS 6 Xposition Yposition Zposition Xrotation Yrotation Zrotation 
	JOINT Spine
	{
		OFFSET -0.279200 12.230698 -2.892100
		CHANNELS 3 Xrotation Yrotation Zrotation
		JOINT Spine1
		{
			OFFSET -0.232667 10.192268 -1.242267
			CHANNELS 3 Xrotation Yrotation Zrotation
			JOINT Spine1_split
			{
				OFFSET -0.232667 10.192268 -1.242267
				CHANNELS 3 Xrotation Yrotation Zrotation
				JOINT Spine2
				{
					OFFSET -0.232667 10.192268 -1.242267
					CHANNELS 3 Xrotation Yrotation Zrotation
					JOINT Neck
					{
						OFFSET -0.418800 17.814194 8.416900
						CHANNELS 3 Xrotation Yrotation Zrotation
						JOINT Head
						{
							OFFSET 0.000000 7.031097 3.806800
							CHANNELS 3 Xrotation Yrotation Zrotation
							JOINT HeadTop_End
							{
								OFFSET 0.000000 24.646606 12.978600
								CHANNELS 3 Xrotation Yrotation Zrotation
								End Site
								{
									OFFSET 0.000000 0.000000 0.000000
								}
							}
						}
					}
					JOINT LeftShoulder
					{
						OFFSET 8.476499 7.247704 -3.868750
						CHANNELS 3 Xrotation Yrotation Zrotation
						JOINT LeftShoulder_split
						{
							OFFSET 8.476499 7.247704 -3.868750
							CHANNELS 3 Xrotation Yrotation Zrotation
							JOINT LeftArm
							{
								OFFSET 9.308998 -2.777710 0.208600
								CHANNELS 3 Xrotation Yrotation Zrotation
								JOINT LeftForeArm
								{
									OFFSET 29.972298 0.000000 0.000000
									CHANNELS 3 Xrotation Yrotation Zrotation
									JOINT LeftHand
									{
										OFFSET 26.026505 0.000000 0.000000
										CHANNELS 3 Xrotation Yrotation Zrotation
										JOINT LeftHandThumb1
										{
											OFFSET 12.240501 -7.147949 9.207150
											CHANNELS 3 Xrotation Yrotation Zrotation
											JOINT LeftHandThumb2
											{
												OFFSET 4.138618 -2.389435 2.389433
												CHANNELS 3 Xrotation Yrotation Zrotation
												JOINT LeftHandThumb3
												{
													OFFSET 2.726913 -1.574387 1.574386
													CHANNELS 3 Xrotation Yrotation Zrotation
													JOINT LeftHandThumb4
													{
														OFFSET 3.941010 -2.275345 2.275342
														CHANNELS 3 Xrotation Yrotation Zrotation
														End Site
														{
															OFFSET 0.000000 0.000000 0.000000
														}
													}
												}
											}
										}
										JOINT LeftHandIndex1
										{
											OFFSET 24.424698 -1.985611 5.953459
											CHANNELS 3 Xrotation Yrotation Zrotation
											JOINT LeftHandIndex2
											{
												OFFSET 6.426697 0.000000 0.000000
												CHANNELS 3 Xrotation Yrotation Zrotation
												JOINT LeftHandIndex3
												{
													OFFSET 5.337898 0.000000 0.000000
													CHANNELS 3 Xrotation Yrotation Zrotation
													JOINT LeftHandIndex4
													{
														OFFSET 4.409401 0.000000 0.000000
														CHANNELS 3 Xrotation Yrotation Zrotation
														End Site
														{
															OFFSET 0.000000 0.000000 0.000000
														}
													}
												}
											}
										}
										JOINT LeftHandMiddle1
										{
											OFFSET 23.810104 0.000000 0.000000
											CHANNELS 3 Xrotation Yrotation Zrotation
											JOINT LeftHandMiddle2
											{
												OFFSET 7.176498 0.000000 0.000000
												CHANNELS 3 Xrotation Yrotation Zrotation
												JOINT LeftHandMiddle3
												{
													OFFSET 6.774902 0.000000 0.000000
													CHANNELS 3 Xrotation Yrotation Zrotation
													JOINT LeftHandMiddle4
													{
														OFFSET 5.403328 0.000000 0.000000
														CHANNELS 3 Xrotation Yrotation Zrotation
														End Site
														{
															OFFSET 0.000000 0.000000 0.000000
														}
													}
												}
											}
										}
										JOINT LeftHandRing1
										{
											OFFSET 22.908401 -0.839279 -6.020567
											CHANNELS 3 Xrotation Yrotation Zrotation
											JOINT LeftHandRing2
											{
												OFFSET 6.337502 0.000000 0.000000
												CHANNELS 3 Xrotation Yrotation Zrotation
												JOINT LeftHandRing3
												{
													OFFSET 5.779297 0.000000 0.000000
													CHANNELS 3 Xrotation Yrotation Zrotation
													JOINT LeftHandRing4
													{
														OFFSET 4.965698 0.000000 0.000000
														CHANNELS 3 Xrotation Yrotation Zrotation
														End Site
														{
															OFFSET 0.000000 0.000000 0.000000
														}
													}
												}
											}
										}
										JOINT LeftHandPinky1
										{
											OFFSET 20.037003 -1.530319 -10.950146
											CHANNELS 3 Xrotation Yrotation Zrotation
											JOINT LeftHandPinky2
											{
												OFFSET 5.254700 0.000000 0.000000
												CHANNELS 3 Xrotation Yrotation Zrotation
												JOINT LeftHandPinky3
												{
													OFFSET 4.810204 0.000000 0.000000
													CHANNELS 3 Xrotation Yrotation Zrotation
													JOINT LeftHandPinky4
													{
														OFFSET 3.647202 0.000000 0.000000
														CHANNELS 3 Xrotation Yrotation Zrotation
														End Site
														{
															OFFSET 0.000000 0.000000 0.000000
														}
													}
												}
											}
										}
									}
								}
							}
						}
					}
					JOINT RightShoulder
					{
						OFFSET -7.570500 7.247704 -3.868750
						CHANNELS 3 Xrotation Yrotation Zrotation
						JOINT RightShoulder_split
						{
							OFFSET -7.570500 7.247704 -3.868750
							CHANNELS 3 Xrotation Yrotation Zrotation
							JOINT RightArm
							{
								OFFSET -9.308998 -2.777710 0.208500
								CHANNELS 3 Xrotation Yrotation Zrotation
								JOINT RightForeArm
								{
									OFFSET -29.972300 0.000000 0.000000
									CHANNELS 3 Xrotation Yrotation Zrotation
									JOINT RightHand
									{
										OFFSET -26.026505 0.000000 0.000000
										CHANNELS 3 Xrotation Yrotation Zrotation
										JOINT RightHandThumb1
										{
											OFFSET -12.240601 -7.148026 9.207092
											CHANNELS 3 Xrotation Yrotation Zrotation
											JOINT RightHandThumb2
											{
												OFFSET -4.138618 -2.389435 2.389433
												CHANNELS 3 Xrotation Yrotation Zrotation
												JOINT RightHandThumb3
												{
													OFFSET -2.726974 -1.574417 1.574421
													CHANNELS 3 Xrotation Yrotation Zrotation
													JOINT RightHandThumb4
													{
														OFFSET -3.941010 -2.275345 2.275343
														CHANNELS 3 Xrotation Yrotation Zrotation
														End Site
														{
															OFFSET 0.000000 0.000000 0.000000
														}
													}
												}
											}
										}
										JOINT RightHandIndex1
										{
											OFFSET -24.424698 -1.985657 5.953444
											CHANNELS 3 Xrotation Yrotation Zrotation
											JOINT RightHandIndex2
											{
												OFFSET -6.426697 0.000000 0.000000
												CHANNELS 3 Xrotation Yrotation Zrotation
												JOINT RightHandIndex3
												{
													OFFSET -5.337898 0.000000 0.000000
													CHANNELS 3 Xrotation Yrotation Zrotation
													JOINT RightHandIndex4
													{
														OFFSET -4.409401 0.000000 0.000000
														CHANNELS 3 Xrotation Yrotation Zrotation
														End Site
														{
															OFFSET 0.000000 0.000000 0.000000
														}
													}
												}
											}
										}
										JOINT RightHandMiddle1
										{
											OFFSET -23.810097 0.000000 0.000000
											CHANNELS 3 Xrotation Yrotation Zrotation
											JOINT RightHandMiddle2
											{
												OFFSET -7.176498 0.000000 0.000000
												CHANNELS 3 Xrotation Yrotation Zrotation
												JOINT RightHandMiddle3
												{
													OFFSET -6.774902 0.000000 0.000000
													CHANNELS 3 Xrotation Yrotation Zrotation
													JOINT RightHandMiddle4
													{
														OFFSET -5.403328 0.000000 0.000000
														CHANNELS 3 Xrotation Yrotation Zrotation
														End Site
														{
															OFFSET 0.000000 0.000000 0.000000
														}
													}
												}
											}
										}
										JOINT RightHandRing1
										{
											OFFSET -22.908302 -0.839325 -6.020576
											CHANNELS 3 Xrotation Yrotation Zrotation
											JOINT RightHandRing2
											{
												OFFSET -6.337502 0.000000 0.000000
												CHANNELS 3 Xrotation Yrotation Zrotation
												JOINT RightHandRing3
												{
													OFFSET -5.779297 0.000000 0.000000
													CHANNELS 3 Xrotation Yrotation Zrotation
													JOINT RightHandRing4
													{
														OFFSET -4.965698 0.000000 0.000000
														CHANNELS 3 Xrotation Yrotation Zrotation
														End Site
														{
															OFFSET 0.000000 0.000000 0.000000
														}
													}
												}
											}
										}
										JOINT RightHandPinky1
										{
											OFFSET -20.037003 -1.530334 -10.950259
											CHANNELS 3 Xrotation Yrotation Zrotation
											JOINT RightHandPinky2
											{
												OFFSET -5.254700 0.000000 0.000000
												CHANNELS 3 Xrotation Yrotation Zrotation
												JOINT RightHandPinky3
												{
													OFFSET -4.810204 0.000000 0.000000
													CHANNELS 3 Xrotation Yrotation Zrotation
													JOINT RightHandPinky4
													{
														OFFSET -3.647202 0.000000 0.000000
														CHANNELS 3 Xrotation Yrotation Zrotation
														End Site
														{
															OFFSET 0.000000 0.000000 0.000000
														}
													}
												}
											}
										}
									}
								}
							}
						}
					}
				}
			}
		}
	}
	JOINT LeftUpLeg
	{
		OFFSET 15.427100 -6.655098 0.678600
		CHANNELS 3 Xrotation Yrotation Zrotation
		JOINT LeftLeg
		{
			OFFSET 4.081073 -39.591068 13.024000
			CHANNELS 3 Xrotation Yrotation Zrotation
			JOINT LeftFoot
			{
				OFFSET -4.081074 -37.707932 -15.979700
				CHANNELS 3 Xrotation Yrotation Zrotation
				JOINT LeftToeBase
				{
					OFFSET 5.346399 -15.068900 20.645000
					CHANNELS 3 Xrotation Yrotation Zrotation
					JOINT LeftToe_End
					{
						OFFSET 2.754700 0.931300 11.300900
						CHANNELS 3 Xrotation Yrotation Zrotation
						End Site
						{
							OFFSET 0.000000 0.000000 0.000000
						}
					}
				}
			}
		}
	}
	JOINT RightUpLeg
	{
		OFFSET -15.569500 -6.655098 0.678600
		CHANNELS 3 Xrotation Yrotation Zrotation
		JOINT RightLeg
		{
			OFFSET -4.081825 -39.591045 13.023800
			CHANNELS 3 Xrotation Yrotation Zrotation
			JOINT RightFoot
			{
				OFFSET 4.081824 -37.707954 -15.979600
				CHANNELS 3 Xrotation Yrotation Zrotation
				JOINT RightToeBase
				{
					OFFSET -5.346400 -15.068900 20.645000
					CHANNELS 3 Xrotation Yrotation Zrotation
					JOINT RightToe_End
					{
						OFFSET -2.754700 0.931300 11.300900
						CHANNELS 3 Xrotation Yrotation Zrotation
						End Site
						{
							OFFSET 0.000000 0.000000 0.000000
						}
					}
				}
			}
		}
	}
}
MOTION
Frames: 6
Frame Time: 0.016667
-35.255875 90.504280 -36.132339 4.576646 0.384926 -2.784341 1.741028 1.307407 -4.370021 2.669528 2.765867 -1.144403 0.000000 0.000000 0.000000 2.711152 2.741216 -1.111867 -0.169241 1.518458 2.033064 -4.044500 8.985419 5.077304 0.000001 0.000002 -0.000001 1.433974 -4.062822 -11.219142 0.000000 0.000000 0.000000 -3.341573 24.380994 -39.671296 0.000078 -68.585829 0.000092 0.243766 -28.052584 -0.273026 -1.540040 3.690182 6.142339 3.946764 7.971396 0.752853 -0.575597 1.586257 2.542372 -0.000002 -0.000002 0.000000 -0.000000 0.000004 0.000002 0.000002 0.000009 -0.000045 0.000002 0.000002 0.000001 0.000000 0.000001 0.000001 -0.000001 -0.001930 0.015969 0.000004 0.001927 -0.015980 -0.000002 0.000003 -0.000001 0.000001 -0.000001 0.000002 -0.000000 0.000004 0.000002 0.000003 -0.000003 -0.000035 0.000001 -0.000001 0.000002 -0.000001 0.000001 0.000001 -0.018090 4.054248 0.511062 -0.018084 -4.054255 -0.511066 0.000001 0.000002 0.000001 0.000002 -0.000000 0.000000 0.748685 -2.655727 10.687280 0.000000 0.000000 0.000000 -17.948789 -16.241862 40.821264 -0.000003 12.072943 -0.000000 3.899474 8.202189 6.283292 -1.849251 -3.581794 -6.586137 4.645036 -8.656810 -0.231314 -1.269826 0.126065 -2.098693 -0.000000 -0.000000 0.000003 0.000000 -0.000001 -0.000000 0.000000 0.000004 0.000106 -0.000002 -0.000003 0.000007 -0.000000 -0.000000 0.000002 0.000001 -0.000002 -0.000001 -0.000002 0.000002 0.000032 0.000001 -0.000001 0.000002 0.000000 -0.000002 -0.000002 0.000002 -0.000003 0.000004 0.000001 0.000004 0.000009 -0.000000 -0.000004 0.000006 -0.000001 -0.000000 -0.000004 0.000000 -0.000001 -0.000001 -0.000001 0.000005 0.000006 -0.000000 -0.000002 0.000002 0.000001 -0.000001 -0.000003 -42.268120 -1.388810 12.492648 46.197491 8.503698 0.512800 15.665085 11.525808 -5.502455 -3.413890 0.467244 -7.784326 -0.000002 -0.000003 0.000000 2.573546 -11.661945 -9.155416 24.623892 -4.730684 1.197378 -14.302574 -6.785908 16.621013 -13.277677 -0.016066 0.190832 -0.000000 -0.000000 -0.000000 
-34.567039 90.922607 -36.513302 4.757663 -0.353630 -2.718470 1.553574 1.637652 -4.473569 2.374024 3.259592 -1.400063 0.000000 0.000000 0.000000 2.430396 3.238701 -1.364456 -0.224069 1.432987 2.227389 -4.033165 8.722014 5.409509 -0.000000 0.000001 -0.000000 1.467535 -4.240642 -11.592421 0.000000 0.000000 0.000000 5.654165 26.367471 -43.866811 0.000010 -67.796731 0.000019 0.073306 -29.850215 1.113491 -1.540045 3.690182 6.142338 3.946763 7.971396 0.752854 -0.575594 1.586257 2.542380 -0.000003 -0.000000 -0.000004 -0.000004 0.000005 -0.000002 0.000002 0.000009 -0.000046 0.000003 -0.000000 0.000001 0.000003 0.000001 -0.000001 -0.000005 -0.001929 0.015967 0.000003 0.001927 -0.015978 0.000001 0.000003 0.000002 0.000002 0.000000 -0.000001 -0.000004 0.000005 -0.000002 -0.000001 -0.000004 -0.000035 0.000002 0.000002 0.000002 0.000000 0.000001 0.000002 -0.018095 4.054248 0.511060 -0.018086 -4.054254 -0.511068 -0.000001 0.000001 0.000001 -0.000002 0.000001 -0.000000 0.734774 -2.719270 10.596599 0.000000 0.000000 0.000000 -18.801306 -15.324279 39.607048 -0.000001 12.657096 0.000003 3.908925 3.805294 10.426485 -1.849250 -3.581790 -6.586135 4.645037 -8.656808 -0.231315 -1.269826 0.126065 -2.098695 -0.000000 -0.000001 0.000002 0.000000 0.000000 0.000002 -0.000000 0.000003 0.000107 -0.000003 -0.000001 0.000006 -0.000001 -0.000001 -0.000002 -0.000000 0.000000 0.000001 -0.000000 0.000002 0.000033 0.000001 0.000000 0.000007 -0.000001 0.000000 0.000002 0.000000 -0.000000 0.000006 0.000001 0.000004 0.000007 -0.000000 -0.000001 0.000007 -0.000000 -0.000000 0.000003 0.000000 0.000000 0.000002 0.000000 0.000005 0.000007 0.000000 -0.000002 0.000003 0.000001 0.000000 -0.000001 -39.859925 -1.515893 14.177980 47.137683 8.559767 0.602389 15.620916 13.557158 -3.119087 -5.107082 0.848165 -10.325958 0.000000 -0.000000 0.000000 1.395773 -11.471863 -10.364253 24.327553 -3.395442 1.297922 -12.872739 -5.689004 17.281096 -14.042169 0.041690 -0.449413 -0.000000 -0.000001 0.000000 
-33.852947 91.390762 -36.877716 5.085865 -0.954851 -2.640147 1.342450 1.927054 -4.566354 2.032629 3.712426 -1.607211 0.000000 0.000000 0.000000 2.103382 3.696492 -1.570159 -0.275675 1.345611 2.361041 -3.983147 8.395972 5.665070 0.000000 -0.000001 0.000000 1.481604 -4.316639 -11.747585 0.000000 0.000000 0.000000 12.772041 27.916457 -48.290892 -0.000016 -66.123956 -0.000027 0.079371 -30.831590 0.943975 -1.540045 3.690179 6.142336 3.946762 7.971397 0.752854 -0.575599 1.586249 2.542383 0.000002 -0.000003 0.000001 -0.000001 0.000003 -0.000000 -0.000001 0.000012 -0.000045 -0.000003 0.000001 -0.000001 0.000001 -0.000001 -0.000001 -0.000003 -0.001931 0.015968 0.000004 0.001925 -0.015978 -0.000001 0.000003 0.000002 -0.000001 -0.000002 0.000002 -0.000001 0.000003 -0.000001 0.000000 -0.000003 -0.000037 0.000001 -0.000000 0.000002 0.000000 0.000002 -0.000001 -0.018089 4.054247 0.511058 -0.018088 -4.054254 -0.511067 -0.000000 0.000000 0.000003 0.000002 0.000001 -0.000000 0.715794 -2.807279 10.472896 0.000000 0.000000 0.000000 -19.463263 -14.733597 38.616667 -0.000003 13.178795 0.000010 4.426776 0.064401 14.071440 -1.849254 -3.581783 -6.586138 4.645036 -8.656810 -0.231316 -1.269827 0.126064 -2.098690 0.000000 0.000000 -0.000006 0.000001 0.000001 -0.000003 -0.000000 0.000005 0.000101 -0.000002 -0.000001 0.000006 0.000000 0.000001 0.000001 0.000002 0.000000 -0.000003 -0.000002 0.000003 0.000028 0.000001 -0.000000 0.000004 -0.000001 -0.000001 -0.000001 -0.000000 0.000003 -0.000004 -0.000000 0.000003 0.000008 -0.000002 -0.000001 0.000004 -0.000000 0.000001 -0.000001 0.000001 0.000001 -0.000003 -0.000001 0.000006 0.000003 -0.000001 -0.000002 0.000000 -0.000000 0.000001 -0.000005 -37.285716 -1.514100 15.917691 47.024725 8.602220 0.742552 15.415276 15.781079 -1.403542 -6.106622 1.018028 -11.098707 0.000001 0.000001 -0.000001 0.266304 -11.267136 -11.406242 23.787421 -2.010032 1.354857 -11.591651 -4.731996 17.782386 -14.327078 0.093203 -1.027585 0.000000 0.000000 0.000000 
-33.142307 91.891167 -37.222031 5.519268 -1.342353 -2.558870 1.122856 2.176304 -4.633975 1.667891 4.119297 -1.757987 0.000000 0.000000 0.000000 1.751485 4.109060 -1.720881 -0.329438 1.250090 2.443575 -3.904391 7.989620 5.840142 0.000001 0.000000 0.000000 1.475789 -4.286666 -11.679669 0.000000 0.000000 0.000000 17.858441 29.300364 -52.334357 0.000012 -63.835296 0.000006 0.424026 -30.787132 -0.397645 -1.540041 3.690181 6.142340 3.946766 7.971404 0.752848 -0.575597 1.586262 2.542375 0.000002 0.000003 -0.000002 -0.000001 0.000004 -0.000000 0.000000 0.000010 -0.000046 -0.000000 -0.000000 -0.000000 -0.000001 -0.000000 -0.000002 -0.000002 -0.001928 0.015968 0.000006 0.001926 -0.015980 -0.000001 0.000003 0.000001 0.000000 0.000000 -0.000000 -0.000001 0.000004 0.000000 -0.000001 -0.000005 -0.000037 -0.000000 -0.000000 0.000002 -0.000002 0.000003 -0.000000 -0.018090 4.054250 0.511060 -0.018087 -4.054255 -0.511069 0.000001 0.000006 0.000000 0.000001 0.000002 0.000000 0.694858 -2.907715 10.339738 0.000000 0.000000 0.000000 -19.916140 -14.501849 37.786731 0.000006 13.690951 0.000005 5.062884 -2.860965 16.812050 -1.849249 -3.581788 -6.586141 4.645038 -8.656810 -0.231321 -1.269827 0.126064 -2.098692 0.000000 -0.000000 -0.000002 0.000002 -0.000002 -0.000011 0.000001 0.000005 0.000103 -0.000002 -0.000002 0.000006 0.000000 0.000000 0.000001 0.000002 -0.000001 -0.000013 -0.000002 0.000003 0.000031 0.000002 0.000000 -0.000000 -0.000001 0.000000 -0.000000 0.000000 -0.000000 -0.000011 -0.000000 0.000003 0.000011 -0.000000 -0.000001 0.000008 -0.000000 -0.000001 -0.000001 0.000002 -0.000002 -0.000013 0.000000 0.000006 0.000004 -0.000002 -0.000002 0.000006 -0.000000 -0.000000 -0.000001 -34.616218 -1.343104 17.658486 45.928381 8.642286 0.917656 14.907409 18.130177 -0.103011 -5.838477 0.978538 -10.712017 0.000000 0.000004 -0.000001 -0.721420 -11.045901 -12.192167 22.966031 -0.408763 1.387164 -10.368955 -4.224939 18.126639 -14.519449 0.137226 -1.599464 -0.000000 -0.000002 0.000000 
-32.451344 92.382782 -37.529510 6.012190 -1.451439 -2.497164 0.906015 2.383626 -4.648115 1.297684 4.466679 -1.850173 0.000000 0.000000 0.000000 1.390935 4.462437 -1.814230 -0.382001 1.148459 2.483352 -3.801411 7.506036 5.941436 0.000000 -0.000001 0.000000 1.451636 -4.159456 -11.406985 0.000000 0.000000 0.000000 21.297285 30.658926 -55.705578 0.000002 -61.187444 0.000007 1.191375 -29.728453 -2.176630 -1.540043 3.690180 6.142338 3.946761 7.971393 0.752852 -0.575600 1.586257 2.542379 -0.000000 0.000000 0.000000 -0.000001 0.000002 -0.000002 -0.000000 0.000009 -0.000048 -0.000000 0.000004 0.000001 0.000000 -0.000002 -0.000002 -0.000003 -0.001932 0.015967 0.000006 0.001923 -0.015979 -0.000000 0.000006 -0.000001 0.000001 0.000004 0.000001 -0.000001 0.000002 0.000000 -0.000001 -0.000008 -0.000037 0.000002 0.000000 0.000001 -0.000001 -0.000003 0.000002 -0.018091 4.054248 0.511058 -0.018087 -4.054255 -0.511063 0.000002 0.000001 -0.000002 -0.000001 -0.000000 0.000000 0.674197 -3.020965 10.232317 0.000000 0.000000 0.000000 -20.144683 -14.588015 37.020872 -0.000003 14.208005 0.000006 5.443054 -5.085632 18.457866 -1.849250 -3.581791 -6.586138 4.645037 -8.656811 -0.231319 -1.269826 0.126065 -2.098690 -0.000000 0.000000 -0.000001 0.000004 -0.000001 -0.000017 -0.000000 0.000004 0.000105 -0.000002 -0.000002 0.000005 0.000000 0.000000 0.000003 0.000004 -0.000000 -0.000017 -0.000002 0.000002 0.000031 0.000001 -0.000001 0.000002 -0.000001 -0.000001 0.000002 0.000004 -0.000001 -0.000012 0.000001 0.000003 0.000009 -0.000001 -0.000001 0.000008 0.000000 0.000000 -0.000001 0.000004 -0.000001 -0.000017 -0.000001 0.000005 0.000007 -0.000000 -0.000001 0.000007 -0.000000 -0.000000 0.000000 -31.966815 -0.970414 19.364445 43.939905 8.693967 1.107726 14.219895 20.445987 1.105246 -4.721877 0.777643 -9.461645 -0.000002 -0.000001 0.000001 -1.424484 -10.801175 -12.772995 21.916878 0.935491 1.383142 -9.318459 -3.870021 18.501925 -14.583217 0.171671 -2.126983 0.000000 -0.000000 0.000000 
-31.778175 92.813507 -37.787086 6.528032 -1.225791 -2.473506 0.698257 2.541008 -4.585982 0.935645 4.729536 -1.887953 0.000000 0.000000 0.000000 1.033656 4.731258 -1.854254 -0.441562 1.030671 2.502777 -3.693572 6.947908 5.993747 -0.000000 -0.000001 0.000000 1.413561 -3.961266 -10.979313 0.000000 0.000000 0.000000 23.536388 32.038297 -58.288541 -0.000011 -58.385557 0.000012 2.290349 -27.753261 -3.777321 -1.540042 3.690181 6.142335 3.946762 7.971399 0.752857 -0.575596 1.586260 2.542379 0.000000 0.000003 0.000002 0.000001 0.000004 -0.000003 -0.000001 0.000012 -0.000045 -0.000000 0.000000 -0.000000 0.000000 -0.000001 -0.000001 -0.000003 -0.001932 0.015968 0.000005 0.001926 -0.015978 0.000000 0.000008 0.000004 0.000000 -0.000001 -0.000001 0.000001 0.000004 -0.000002 0.000000 -0.000005 -0.000037 0.000004 0.000002 0.000005 0.000000 -0.000000 -0.000001 -0.018089 4.054247 0.511058 -0.018091 -4.054259 -0.511068 -0.000001 0.000002 0.000003 -0.000000 0.000001 0.000001 0.656533 -3.133577 10.169166 0.000000 0.000000 0.000000 -20.170503 -14.903039 36.224325 0.000003 14.706340 -0.000002 5.304923 -6.876361 19.061619 -1.849248 -3.581790 -6.586142 4.645037 -8.656809 -0.231319 -1.269826 0.126065 -2.098687 0.000000 -0.000000 -0.000002 0.000001 -0.000000 0.000000 0.000002 0.000004 0.000103 -0.000000 -0.000001 0.000001 0.000000 0.000000 -0.000001 0.000001 0.000000 0.000000 -0.000002 0.000003 0.000031 0.000001 -0.000002 0.000001 -0.000000 0.000001 -0.000002 0.000003 0.000000 -0.000009 0.000000 0.000005 0.000007 -0.000000 0.000000 0.000008 0.000001 -0.000000 0.000001 0.000001 -0.000000 0.000000 0.000000 0.000006 0.000005 -0.000001 -0.000002 0.000007 -0.000001 0.000000 -0.000002 -29.487576 -0.400121 21.022142 41.200176 8.749139 1.288348 13.667215 22.471650 2.382222 -3.747663 0.496961 -7.534267 0.000000 -0.000002 0.000000 -1.757588 -10.547993 -13.185042 20.708903 1.797632 1.343817 -8.544704 -3.576316 18.943204 -14.502052 0.194227 -2.553631 0.000000 -0.000001 0.000000 
